REM DIRINDEX 1\6,1\2\7,1\2\8,1\2\9,1\3\10,1\3\11,1\4\12,1\4\13,1\4\14,1\5\15,1\5\16,1\5\17
REM DIRNAME folder01,folder02,folder03,folder04,folder05,folder06,folder07,folder08,folder09,folder10,folder11,folder12,folder13,folder14,folder15,folder16,folder17
TITLE ""
FILE "P2Q_t_0807-0824.mp3" MP3
  TRACK 01 AUDIO
    TITLE "10:cjc040_3268"
    INDEX 01 00:00:00
  TRACK 02 AUDIO
    TITLE "0:"
    INDEX 01 00:01:13
  TRACK 03 AUDIO
    TITLE "11:cjc040_3269"
    INDEX 01 00:01:69
  TRACK 04 AUDIO
    TITLE "0:"
    INDEX 01 00:03:39
  TRACK 05 AUDIO
    TITLE "10:cjc040_3270"
    INDEX 01 00:04:15
  TRACK 06 AUDIO
    TITLE "0:"
    INDEX 01 00:05:20
  TRACK 07 AUDIO
    TITLE "11:cjc040_3271"
    INDEX 01 00:05:73
  TRACK 08 AUDIO
    TITLE "0:"
    INDEX 01 00:09:73
  TRACK 09 AUDIO
    TITLE "10:cjc040_3272"
    INDEX 01 00:10:51
  TRACK 10 AUDIO
    TITLE "0:"
    INDEX 01 00:11:66
  TRACK 11 AUDIO
    TITLE "11:cjc040_3273"
    INDEX 01 00:12:42
  TRACK 12 AUDIO
    TITLE "0:"
    INDEX 01 00:15:07
  TRACK 13 AUDIO
    TITLE "10:cjc040_3274"
    INDEX 01 00:15:58
  TRACK 14 AUDIO
    TITLE "0:"
    INDEX 01 00:16:61
  TRACK 15 AUDIO
    TITLE "11:cjc040_3275"
    INDEX 01 00:17:39
  TRACK 16 AUDIO
    TITLE "0:"
    INDEX 01 00:19:46
  TRACK 17 AUDIO
    TITLE "10:cjc040_3276"
    INDEX 01 00:20:22
  TRACK 18 AUDIO
    TITLE "0:"
    INDEX 01 00:21:57
  TRACK 19 AUDIO
    TITLE "11:cjc040_3277"
    INDEX 01 00:22:34
  TRACK 20 AUDIO
    TITLE "0:"
    INDEX 01 00:23:67
  TRACK 21 AUDIO
    TITLE "10:cjc040_3278"
    INDEX 01 00:24:45
  TRACK 22 AUDIO
    TITLE "0:"
    INDEX 01 00:25:56
  TRACK 23 AUDIO
    TITLE "11:cjc040_3279"
    INDEX 01 00:26:34
  TRACK 24 AUDIO
    TITLE "0:"
    INDEX 01 00:27:71
  TRACK 25 AUDIO
    TITLE "10:cjc040_3280"
    INDEX 01 00:28:51
  TRACK 26 AUDIO
    TITLE "0:"
    INDEX 01 00:29:58
  TRACK 27 AUDIO
    TITLE "11:cjc040_3281"
    INDEX 01 00:30:40
  TRACK 28 AUDIO
    TITLE "0:"
    INDEX 01 00:32:68
  TRACK 29 AUDIO
    TITLE "10:cjc040_3282"
    INDEX 01 00:33:46
  TRACK 30 AUDIO
    TITLE "0:"
    INDEX 01 00:34:49
  TRACK 31 AUDIO
    TITLE "11:cjc040_3283"
    INDEX 01 00:35:33
  TRACK 32 AUDIO
    TITLE "0:"
    INDEX 01 00:36:38
  TRACK 33 AUDIO
    TITLE "10:cjc040_3284"
    INDEX 01 00:37:14
  TRACK 34 AUDIO
    TITLE "0:"
    INDEX 01 00:38:30
  TRACK 35 AUDIO
    TITLE "11:cjc040_3285"
    INDEX 01 00:39:05
  TRACK 36 AUDIO
    TITLE "0:"
    INDEX 01 00:41:73
  TRACK 37 AUDIO
    TITLE "10:cjc040_3286"
    INDEX 01 00:42:51
  TRACK 38 AUDIO
    TITLE "0:"
    INDEX 01 00:43:72
  TRACK 39 AUDIO
    TITLE "11:cjc040_3287"
    INDEX 01 00:44:56
  TRACK 40 AUDIO
    TITLE "0:"
    INDEX 01 00:46:23
  TRACK 41 AUDIO
    TITLE "10:cjc040_3288"
    INDEX 01 00:46:72
  TRACK 42 AUDIO
    TITLE "0:"
    INDEX 01 00:48:20
  TRACK 43 AUDIO
    TITLE "11:cjc040_3289"
    INDEX 01 00:48:73
  TRACK 44 AUDIO
    TITLE "0:"
    INDEX 01 00:52:61
  TRACK 45 AUDIO
    TITLE "10:cjc040_3290"
    INDEX 01 00:53:33
  TRACK 46 AUDIO
    TITLE "0:"
    INDEX 01 00:54:46
  TRACK 47 AUDIO
    TITLE "11:cjc040_3291"
    INDEX 01 00:55:20
  TRACK 48 AUDIO
    TITLE "0:"
    INDEX 01 00:56:53
  TRACK 49 AUDIO
    TITLE "10:cjc040_3292"
    INDEX 01 00:57:25
  TRACK 50 AUDIO
    TITLE "0:"
    INDEX 01 00:58:54
  TRACK 51 AUDIO
    TITLE "11:cjc040_3293"
    INDEX 01 00:59:28
  TRACK 52 AUDIO
    TITLE "0:"
    INDEX 01 01:04:15
  TRACK 53 AUDIO
    TITLE "10:cjc040_3294"
    INDEX 01 01:04:64
  TRACK 54 AUDIO
    TITLE "0:"
    INDEX 01 01:06:06
  TRACK 55 AUDIO
    TITLE "11:cjc040_3295"
    INDEX 01 01:06:61
  TRACK 56 AUDIO
    TITLE "0:"
    INDEX 01 01:09:03
  TRACK 57 AUDIO
    TITLE "10:cjc040_3296"
    INDEX 01 01:09:54
  TRACK 58 AUDIO
    TITLE "0:"
    INDEX 01 01:11:05
  TRACK 59 AUDIO
    TITLE "11:cjc040_3297"
    INDEX 01 01:11:54
  TRACK 60 AUDIO
    TITLE "0:"
    INDEX 01 01:14:41
  TRACK 61 AUDIO
    TITLE "10:cjc040_3298"
    INDEX 01 01:15:17
  TRACK 62 AUDIO
    TITLE "0:"
    INDEX 01 01:16:42
  TRACK 63 AUDIO
    TITLE "11:cjc040_3299"
    INDEX 01 01:17:18
  TRACK 64 AUDIO
    TITLE "0:"
    INDEX 01 01:18:62
  TRACK 65 AUDIO
    TITLE "10:cjc040_3300"
    INDEX 01 01:19:38
  TRACK 66 AUDIO
    TITLE "0:"
    INDEX 01 01:20:48
  TRACK 67 AUDIO
    TITLE "11:cjc040_3301"
    INDEX 01 01:21:31
  TRACK 68 AUDIO
    TITLE "0:"
    INDEX 01 01:23:40
  TRACK 69 AUDIO
    TITLE "10:cjc040_3302"
    INDEX 01 01:24:14
  TRACK 70 AUDIO
    TITLE "0:"
    INDEX 01 01:25:19
  TRACK 71 AUDIO
    TITLE "11:cjc040_3303"
    INDEX 01 01:25:72
  TRACK 72 AUDIO
    TITLE "0:"
    INDEX 01 01:28:41
